<?xml version="1.0" encoding="utf-8"?>
<!-- Generator: Adobe Illustrator 16.0.0, SVG Export Plug-In . SVG Version: 6.00 Build 0)  -->
<!DOCTYPE svg PUBLIC "-//W3C//DTD SVG 1.0//EN" "http://www.w3.org/TR/2001/REC-SVG-20010904/DTD/svg10.dtd">
<svg version="1.0" id="Layer_1" xmlns="http://www.w3.org/2000/svg" xmlns:xlink="http://www.w3.org/1999/xlink" x="0px" y="0px"
	 width="800px" height="800px" viewBox="0 0 800 800" enable-background="new 0 0 800 800" xml:space="preserve">
<g>
	<path fill="none" stroke="#000000" stroke-width="9.668" d="M315.94,204.99"/>
	<polygon fill="#EA1F25" points="296.012,246.792 334.756,187.709 385.479,187.777 399.319,204.767 413.17,187.803 463.411,187.777 
		502.828,245.848 482.943,257.084 454.776,232.091 454.75,316.137 344.549,316.137 344.679,230.393 315.847,257.91 	"/>
	<path d="M348.35,312.341H450.94l0.041-88.697l32.452,28.804l13.94-7.875l-35.973-52.993l-46.434,0.025l-15.648,19.169
		l-15.648-19.206l-46.867-0.051l-35.381,53.955l13.831,7.75l33.221-31.702L348.35,312.341z M340.738,319.933l0.119-80.653
		l-24.415,23.311l-22.279-12.487l1.854-3.32l-1.854,3.32l-3.558-1.993l42.089-64.197l54.577,0.074l12.059,14.775l12.031-14.75
		l54.06-0.025l42.851,63.13l-25.805,14.61l-23.909-21.196l-0.026,79.4H340.738z"/>
	<polygon points="309.888,258.386 313.168,252.05 346.572,270.151 342.617,277.241 290.605,248.116 	"/>
	<rect x="344.786" y="269.691" width="109.976" height="7.6"/>
	
		<rect x="451.096" y="256.108" transform="matrix(-0.8649 0.5019 -0.5019 -0.8649 1022.2127 244.6954)" width="54.165" height="7.59"/>
	<path d="M379.722,164.214c0-10.809,8.769-19.577,19.584-19.577c10.812,0,19.571,8.769,19.571,19.577
		c0,10.812-8.76,19.577-19.571,19.577C388.49,183.792,379.722,175.026,379.722,164.214"/>
	<polygon fill="#1F91C0" points="511.813,253.068 580.256,270.615 596.597,318.625 584.994,337.221 605.533,344.843 
		621.811,392.377 579.614,448.449 562.557,433.277 577.103,398.53 497.561,425.697 461.904,321.428 543.062,293.806 
		507.703,275.443 	"/>
	<path d="M567.11,432.244l11.95,10.635l38.515-51.176l-15.046-43.928l-23.205-8.611l13.1-21.014l-15.11-44.365l-62.506-16.028
		l-2.865,15.611l40.763,21.173l-85.99,29.269l33.223,97.073l83.915-28.665L567.11,432.244z M558.008,434.32l12.329-29.461
		l-75.138,25.666l-38.11-111.456l76.347-25.981l-29.965-15.579l4.61-25.119l0.732-4.003l74.373,19.061l17.584,51.648l-10.081,16.197
		l17.847,6.616l17.538,51.134l-45.907,60.974L558.008,434.32z"/>
	<polygon points="498.579,307.244 504.714,269.855 512.19,271.074 506.069,308.467 	"/>
	<polygon points="498.729,309.086 505.908,306.628 541.504,410.691 534.313,413.152 	"/>
	<polygon points="535.42,414.779 540.397,409.057 581.274,444.566 576.308,450.309 	"/>
	<path d="M617.033,305.56c10.234-3.496,21.358,1.961,24.863,12.192c3.495,10.231-1.973,21.368-12.207,24.855
		c-10.231,3.501-21.341-1.961-24.848-12.193C601.334,320.185,606.802,309.066,617.033,305.56"/>
	<polygon fill="#F7C114" points="574.513,461.445 578.947,531.934 538.311,562.314 517.045,557.025 516.142,578.895 
		475.942,609.049 409.587,586.211 418.738,565.295 456.285,568.412 405.904,501.129 494.092,435.049 545.4,503.742 551.964,464.438 
			"/>
	<path d="M414.729,583.945l60.56,20.854l37.118-27.865l1.042-24.725l24.035,5.982l37.542-28.055l-4.047-64.393l-15.725,2.086
		l-7.555,45.301l-54.375-72.777l-82.103,61.539l53.155,70.992l-43.239-3.58L414.729,583.945z M404.459,588.447l11.892-27.162
		l31.826,2.639l-47.588-63.564l94.271-70.641l48.266,64.621l5.569-33.297l25.326-3.369l4.024-0.527l4.812,76.623l-43.704,32.654
		l-18.515-4.598l-0.789,19.031l-43.239,32.439L404.459,588.447z"/>
	<polygon points="518.904,465.555 556.359,459.863 557.507,467.352 520.051,473.061 	"/>
	<polygon points="429.197,532.223 517.206,466.271 521.745,472.344 433.734,538.295 	"/>
	<polygon points="406.797,583.621 427.965,533.77 434.952,536.75 413.786,586.6 	"/>
	<path d="M557.042,577.713c6.484,8.648,4.725,20.939-3.924,27.4c-8.647,6.486-20.928,4.74-27.412-3.92
		c-6.476-8.648-4.727-20.916,3.933-27.402C538.286,567.307,550.554,569.053,557.042,577.713"/>
	<polygon fill="#919595" points="394.594,584.953 328.597,610.168 287.521,580.43 286.25,558.531 265.09,564.188 224.328,534.775 
		226.396,464.637 249.09,467.152 257.291,503.916 306.506,435.803 395.864,500.322 345.561,569.744 385.021,564.313 	"/>
	<path d="M291.215,578.393l37.955,27.5l60.265-23.025l-6.683-14.404l-45.488,6.258l53.293-73.545l-83.19-60.08l-51.949,71.885
		l-9.445-42.346l-15.895-1.773l-1.892,64.016l37.672,27.164l23.901-6.373L291.215,578.393z M283.836,582.439l-1.106-19.043
		l-18.405,4.912l-43.837-31.625l2.226-76.27l29.476,3.27l6.963,31.17l46.512-64.354l95.49,68.967l-47.31,65.324l33.438-4.611
		l10.756,23.188l-3.444,1.586l3.444-1.586l1.721,3.686l-71.721,27.387L283.836,582.439z"/>
	<polygon points="367.28,536.408 374.104,533.09 390.71,567.156 383.869,570.473 	"/>
	<polygon points="279.317,473.438 283.763,467.277 372.916,531.684 368.479,537.83 	"/>
	<polygon points="227.273,468.762 228.021,461.207 281.913,466.586 281.165,474.141 	"/>
	<path d="M278.382,602.875c-6.327,8.775-18.56,10.748-27.327,4.428c-8.779-6.338-10.747-18.58-4.411-27.354
		c6.33-8.76,18.57-10.734,27.339-4.41C282.745,581.875,284.718,594.117,278.382,602.875"/>
	<polygon fill="#179546" points="222.128,451.805 177.676,396.896 193.193,348.617 213.593,340.608 201.676,322.245 
		216.954,274.388 284.27,254.565 288.927,276.915 256.537,296.114 336.565,321.769 302.974,426.715 221.34,400.471 238.769,436.307 
			"/>
	<path d="M219.966,277.461l-14.135,44.225l13.488,20.751l-23.066,9.056l-14.336,44.617l40.605,50.151l11.604-10.822l-20.079-41.304
		l86.463,27.816l31.294-97.714l-84.475-27.08l37.326-22.128l-3.257-15.662L219.966,277.461z M222.128,451.791l2.96-2.375
		L222.128,451.791z M173.433,397.693l16.699-51.95l17.761-6.974l-10.39-15.966l16.447-51.496l73.199-21.545l6.053,29.023
		l-27.482,16.298l75.616,24.233l-35.905,112.19l-76.794-24.699L243.4,437.16l-18.684,17.424l-2.979,2.775L173.433,397.693z"/>
	<polygon points="232.561,437.123 259.791,410.777 265.069,416.221 237.853,442.592 	"/>
	<polygon points="258.811,412.342 292.352,307.595 299.575,309.914 266.045,414.662 	"/>
	<polygon points="280.633,256.676 288.049,255.044 299.668,307.941 292.253,309.576 	"/>
	<path d="M169.011,346.907c-10.302-3.3-15.977-14.318-12.678-24.611c3.294-10.303,14.311-15.988,24.604-12.678
		c10.313,3.294,15.977,14.31,12.696,24.606C190.333,344.524,179.304,350.199,169.011,346.907"/>
	<path d="M344.786,400c0,15.253,6.166,29.041,16.169,39.035c10.001,10.004,23.782,16.176,39.056,16.176
		c15.246,0,29.034-6.172,39.027-16.176c10.006-9.994,16.177-23.781,16.177-39.035c0-15.265-6.171-29.054-16.177-39.055
		c-9.993-9.984-23.781-16.164-39.027-16.164c-15.273,0-29.055,6.179-39.056,16.164C350.952,370.947,344.786,384.735,344.786,400
		 M337.194,400c0-34.692,28.11-62.816,62.816-62.816c34.667,0,62.796,28.124,62.796,62.816c0,34.683-28.129,62.8-62.796,62.8
		C365.305,462.801,337.194,434.684,337.194,400"/>
	<path d="M137.938,399.995c0,72.386,29.317,137.859,76.748,185.31c47.443,47.436,112.93,76.748,185.324,76.748
		c72.375,0,137.863-29.313,185.299-76.748c47.436-47.451,76.749-112.924,76.759-185.31c-0.01-72.39-29.323-137.863-76.759-185.318
		c-47.436-47.431-112.924-76.749-185.299-76.749c-72.395,0-137.881,29.317-185.324,76.749
		C167.256,262.131,137.938,327.605,137.938,399.995 M125.851,399.995c0.015-151.42,122.741-274.141,274.16-274.154
		c151.396,0.014,274.126,122.734,274.14,274.154c-0.014,151.423-122.743,274.138-274.14,274.138
		C248.592,674.133,125.865,551.418,125.851,399.995"/>
	<path d="M47.236,399.995c0,97.425,39.475,185.587,103.313,249.439c63.854,63.852,152.021,103.336,249.461,103.336
		c97.412,0,185.576-39.484,249.44-103.336c63.854-63.852,103.319-152.014,103.319-249.439c0-97.435-39.465-185.59-103.319-249.441
		C585.587,86.701,497.423,47.219,400.011,47.219c-97.439,0-185.607,39.481-249.461,103.334
		C86.711,214.405,47.236,302.56,47.236,399.995 M35.15,399.995c0.013-201.496,163.347-364.842,364.86-364.842
		c201.488,0,364.827,163.346,364.839,364.842c-0.012,201.5-163.351,364.853-364.839,364.853
		C198.497,764.848,35.163,601.494,35.15,399.995"/>
	<path d="M327.162,105.366c1.188,4.066,1.511,7.397,0.97,9.999c-1.032,4.764-4.669,8.058-10.931,9.885
		c-3.611,1.055-6.974,0.982-10.111-0.22c-3.141-1.205-5.435-4.311-6.899-9.32l-1.007-3.431l6.128-1.803l1.019,3.438
		c0.76,2.626,1.916,4.424,3.489,5.405c1.557,0.993,3.563,1.106,6.045,0.383c3.474-1.012,5.404-2.866,5.782-5.574
		c0.232-1.661-0.259-4.513-1.445-8.585l-9.384-32.085l6.466-1.877L327.162,105.366z"/>
	<path d="M351.604,64.748l3.309,30.839c0.368,3.62,1.387,6.555,3.008,8.805c2.421,3.413,6.04,4.853,10.854,4.342
		c5.776-0.622,9.496-3.003,11.144-7.145c0.888-2.244,1.146-5.159,0.759-8.768l-3.305-30.826l6.831-0.736l3,28.011
		c0.646,6.14,0.337,10.955-0.975,14.43c-2.396,6.341-7.833,9.973-16.271,10.873c-8.46,0.917-14.506-1.477-18.178-7.184
		c-2.016-3.123-3.342-7.755-4.002-13.895l-2.996-28.012L351.604,64.748z"/>
	<path d="M427.939,107.207c2.226,0.22,4.085,0.17,5.567-0.169c2.665-0.629,4.94-2.124,6.826-4.463
		c1.508-1.892,2.715-4.38,3.594-7.479c0.516-1.843,0.857-3.583,1.019-5.179c0.618-6.191-0.1-11.118-2.175-14.775
		c-2.072-3.652-5.769-5.751-11.11-6.279l-11.715-1.169l-3.808,38.343L427.939,107.207z M413.687,61.203l19.947,1.986
		c6.786,0.678,11.79,3.625,15.032,8.879c2.915,4.727,4.01,10.514,3.317,17.377c-0.513,5.298-1.974,10-4.374,14.078
		c-4.22,7.22-10.531,10.427-18.989,9.578l-19.887-1.968L413.687,61.203z"/>
	<path d="M503.898,119.015c3.857-3.28,6.646-7.565,8.358-12.882c1.783-5.625,1.756-10.622-0.066-14.983
		c-1.859-4.374-5.313-7.377-10.418-9.013c-4.94-1.584-9.527-1.168-13.724,1.225c-4.2,2.409-7.368,6.902-9.491,13.525
		c-1.698,5.292-1.786,10.181-0.278,14.675c1.508,4.506,5.282,7.71,11.277,9.628C495.273,123.02,500.051,122.297,503.898,119.015
		 M519.356,90.388c1.811,5.243,1.66,11.162-0.452,17.749c-2.272,7.134-5.984,12.488-11.124,16.05
		c-6.021,4.198-12.973,5.034-20.842,2.509c-7.338-2.351-12.354-6.625-14.993-12.828c-2.276-5.895-2.239-12.412,0.049-19.564
		c2.063-6.459,5.443-11.482,10.132-15.045c6.009-4.588,13.034-5.574,21.105-3.005C511.679,78.957,517.045,83.671,519.356,90.388"/>
	<polygon points="674.461,201.276 693.532,230.381 688.39,233.749 673.042,210.328 660.298,218.679 673.797,239.274 
		668.808,242.554 655.308,221.968 636.227,234.472 632.494,228.785 	"/>
	<polygon points="705.373,253.068 719.437,286.643 713.755,289.019 702.255,261.553 688.214,267.448 698.861,292.832 
		693.495,295.07 682.859,269.686 667.174,276.265 678.876,304.196 673.37,306.514 659.079,272.458 	"/>
	<path d="M688.075,340.785c0.452,2.188,1.058,3.965,1.823,5.277c1.371,2.359,3.47,4.094,6.262,5.2
		c2.262,0.893,4.999,1.301,8.217,1.239c1.912-0.051,3.672-0.246,5.257-0.567c6.083-1.239,10.571-3.387,13.462-6.434
		c2.878-3.054,3.796-7.209,2.727-12.463l-2.362-11.557l-37.746,7.685L688.075,340.785z M727.807,313.59l4.013,19.653
		c1.343,6.668,0.011,12.333-4.05,16.986c-3.646,4.162-8.86,6.93-15.62,8.304c-5.206,1.057-10.133,1.057-14.749-0.026
		c-8.144-1.905-13.069-7.014-14.766-15.328l-3.975-19.577L727.807,313.59z"/>
	<polygon points="738.466,381.962 738.531,418.375 732.372,418.389 732.334,388.604 717.102,388.63 717.148,416.164 
		711.329,416.164 711.293,388.644 694.286,388.669 694.337,418.963 688.364,418.963 688.291,382.056 	"/>
	<path d="M708.879,464.023c-0.614,3.002-0.464,5.518,0.429,7.527c0.904,2.012,2.977,3.318,6.246,3.959
		c3.506,0.691,6.132-0.063,7.906-2.262c0.93-1.182,1.621-2.877,2.061-5.064l3.142-15.711l-16.816-3.32L708.879,464.023z
		 M735.729,446.99l-4.462,22.199c-0.729,3.645-1.885,6.559-3.46,8.695c-3.001,4.1-7.327,5.582-12.972,4.463
		c-2.954-0.578-5.238-1.658-6.859-3.229c-1.647-1.584-2.804-3.572-3.521-5.961c-1.156,1.748-2.463,2.969-3.934,3.699
		c-1.472,0.703-3.646,0.826-6.524,0.375l-6.636-1.082c-1.899-0.289-3.331-0.402-4.273-0.336c-1.658,0.088-2.816,0.588-3.456,1.518
		l-1.104-0.213l1.621-8.105c0.476-0.141,1.054-0.201,1.746-0.201c0.716-0.027,2.01,0.139,3.971,0.428l8.271,1.23
		c3.244,0.479,5.63-0.254,7.166-2.188c0.841-1.105,1.532-2.979,2.049-5.605l2.953-14.619l-21.105-4.16l1.32-6.613L735.729,446.99z"
		/>
	<path d="M682.207,525.625l23.431,1.371l-17.397-15.9L682.207,525.625z M713.868,526.582l-2.928,7.086l-53.332-2.422l2.865-6.879
		l15.878,0.93l7.539-18.188l-11.789-10.785l2.663-6.422L713.868,526.582z"/>
	<polygon points="676.036,596.918 670.956,593.752 679.921,579.422 642.449,555.98 646.081,550.16 683.565,573.59 692.515,559.26 
		697.593,562.428 	"/>
	<polygon points="661.517,614.893 657.132,620.146 618.604,588.008 622.991,582.742 	"/>
	<path d="M586.615,634.553c0.816,4.979,3.056,9.553,6.726,13.752c3.873,4.422,8.158,6.973,12.858,7.664
		c4.689,0.68,9.051-0.729,13.085-4.223c3.896-3.404,5.922-7.516,6.056-12.344c0.129-4.824-2.096-9.842-6.671-15.057
		c-3.658-4.174-7.793-6.762-12.42-7.779c-4.625-1.031-9.314,0.512-14.066,4.637C587.659,625.125,585.811,629.574,586.615,634.553
		 M603.12,662.48c-5.418-1.156-10.397-4.348-14.96-9.527c-4.913-5.629-7.576-11.539-7.98-17.75
		c-0.477-7.301,2.429-13.66,8.636-19.064c5.819-5.055,12.067-7.115,18.742-6.174c6.209,1.105,11.777,4.488,16.73,10.133
		c4.449,5.076,7.001,10.545,7.628,16.377c0.805,7.479-1.973,13.99-8.357,19.521C616.883,661.803,610.072,663.963,603.12,662.48"/>
	<polygon points="581.489,686.389 574.476,690.258 532.982,666.881 552.579,702.363 546.909,705.492 522.626,661.602 
		529.325,657.906 571.13,681.061 551.536,645.625 557.216,642.484 	"/>
	<polygon points="359.976,736.115 353.169,735.232 359.562,685.471 366.373,686.34 	"/>
	<polygon points="326.496,730.961 318.786,728.771 305.865,682.92 294.747,721.908 288.498,720.113 302.266,671.885 
		309.599,673.971 322.911,719.873 334.025,680.932 340.253,682.719 	"/>
	<polygon points="229.085,692.799 231.786,687.469 246.87,695.098 266.799,655.643 272.928,658.748 252.999,698.18 268.101,705.807 
		265.393,711.15 	"/>
	<polygon points="208.408,679.527 179.448,657.451 183.182,652.576 206.86,670.625 216.093,658.51 194.197,641.83 197.724,637.203 
		219.62,653.883 229.927,640.357 205.831,621.994 209.463,617.244 238.808,639.629 	"/>
	<path d="M161.039,606.033c-2.041-2.314-4.142-3.736-6.291-4.236c-2.148-0.531-4.467,0.314-6.961,2.514
		c-2.69,2.361-3.683,4.914-3,7.664c0.383,1.473,1.313,3.043,2.804,4.742l10.658,12.131l12.885-11.314L161.039,606.033z
		 M158.348,637.797l-15.055-17.121c-2.483-2.828-4.104-5.52-4.864-8.096c-1.454-4.877-0.014-9.227,4.309-13.035
		c2.251-1.973,4.519-3.129,6.77-3.48c2.257-0.314,4.556-0.023,6.9,0.879c-0.697-1.984-0.873-3.795-0.564-5.391
		c0.332-1.611,1.545-3.408,3.657-5.418l4.901-4.627c1.389-1.307,2.345-2.361,2.886-3.166c0.935-1.357,1.219-2.592,0.861-3.67
		l0.849-0.754l5.504,6.258c-0.161,0.465-0.47,0.969-0.898,1.521c-0.42,0.553-1.338,1.52-2.738,2.867l-6.029,5.832
		c-2.35,2.299-3.229,4.611-2.595,7.012c0.372,1.346,1.438,3.057,3.219,5.066l9.924,11.313l16.164-14.217l4.493,5.117
		L158.348,637.797z"/>
	<polygon points="115.52,584.477 111.566,577.512 134.506,535.756 99.236,555.74 96.043,550.098 139.69,525.361 143.45,532.01 
		120.742,574.066 155.974,554.107 159.168,559.752 	"/>
	<path d="M104.29,489.35l-18.63,14.303l23.568,0.654L104.29,489.35z M79.715,509.371l-2.42-7.275l41.914-33.072l2.339,7.066
		l-12.628,9.701l6.204,18.68l15.974,0.438l2.178,6.627L79.715,509.371z"/>
	<polygon points="62.337,431.355 68.245,430.447 70.822,447.152 114.494,440.379 115.551,447.164 71.878,453.93 74.48,470.645 
		68.56,471.551 	"/>
	<polygon points="61.483,401.363 61.583,408.227 111.755,407.441 111.653,400.564 	"/>
	<path d="M105.559,344.524c-3.858-3.255-8.56-5.279-14.091-6.075c-5.846-0.826-10.76,0.021-14.762,2.557
		c-4.005,2.551-6.386,6.466-7.146,11.764c-0.735,5.143,0.44,9.59,3.501,13.337c3.061,3.757,8.044,6.115,14.92,7.107
		c5.504,0.785,10.345,0.063,14.518-2.181c4.167-2.25,6.718-6.485,7.604-12.739C110.951,352.374,109.448,347.781,105.559,344.524
		 M74.756,334.055c4.865-2.648,10.735-3.495,17.585-2.521c7.418,1.069,13.313,3.838,17.686,8.301
		c5.135,5.241,7.115,11.959,5.945,20.13c-1.093,7.651-4.468,13.287-10.155,16.937c-5.418,3.195-11.854,4.275-19.294,3.207
		c-6.707-0.961-12.212-3.444-16.522-7.467c-5.513-5.159-7.674-11.929-6.48-20.317C64.783,343.557,68.529,337.467,74.756,334.055"/>
	<polygon points="75.492,301.895 78.257,294.379 124.927,284.902 86.898,270.899 89.137,264.81 136.221,282.136 133.581,289.308 
		86.818,299.135 124.816,313.132 122.576,319.214 	"/>
	<path d="M140.835,231.838l-22.94-4.975l14.726,18.42L140.835,231.838z M109.7,226.001l4.016-6.556L166,230.118l-3.879,6.347
		l-15.563-3.374l-10.268,16.786l9.973,12.481l-3.625,5.944L109.7,226.001z"/>
	<polygon points="137.794,185.496 142.298,180.413 175.338,209.781 192.061,190.963 196.524,194.94 175.286,218.83 	"/>
</g>
</svg>
